Coordinates
version=1
nRows=27
nColumns=38
inDegrees=no

Units are S.I. units (second, meters, Newtons, ...)
If the header above contains a line with 'inDegrees', this indicates whether rotational values are in degrees (yes) or radians (no).

endheader
time	pelvis_tilt	pelvis_list	pelvis_rotation	pelvis_tx	pelvis_ty	pelvis_tz	hip_flexion_r	hip_adduction_r	hip_rotation_r	knee_angle_r	ankle_angle_r	subtalar_angle_r	mtp_angle_r	hip_flexion_l	hip_adduction_l	hip_rotation_l	knee_angle_l	ankle_angle_l	subtalar_angle_l	mtp_angle_l	lumbar_extension	lumbar_bending	lumbar_rotation	arm_flex_r	arm_add_r	arm_rot_r	elbow_flex_r	pro_sup_r	wrist_flex_r	wrist_dev_r	arm_flex_l	arm_add_l	arm_rot_l	elbow_flex_l	pro_sup_l	wrist_flex_l	wrist_dev_l
0.69	3.0323	1.32212	-1.51236	0.677572	-0.0407481	1.0223	0.147742	0.000260707	-0.0150814	1.2778	-0.219313	0	0	-0.100666	-0.0653633	-0.479728	0.577934	-0.137428	0	0	-0.57494	0.118847	0.557386	-0.531851	-0.416492	-0.708383	1.97482	0.482734	0	0	0.765688	-0.178276	0.806728	0.902113	0.618101	0	0
0.7	3.02321	1.32486	-1.50111	0.676856	-0.0306746	1.0236	0.169532	0.00374961	-0.0203534	1.25739	-0.214166	0	0	-0.115197	-0.0628669	-0.476765	0.561223	-0.13768	0	0	-0.572887	0.123321	0.553464	-0.530197	-0.417405	-0.706757	1.97431	0.482779	0	0	0.76464	-0.180018	0.80519	0.904122	0.617143	0	0
0.71	3.01349	1.32836	-1.48909	0.676311	-0.0205647	1.02463	0.191478	0.00611549	-0.027914	1.23512	-0.209858	0	0	-0.128631	-0.0612744	-0.47467	0.545562	-0.137802	0	0	-0.56833	0.128066	0.54669	-0.524533	-0.419082	-0.701103	1.97128	0.483345	0	0	0.762636	-0.184306	0.803763	0.906154	0.617171	0	0
0.72	3.00512	1.33182	-1.4777	0.675835	-0.010413	1.0254	0.21306	0.00563167	-0.0399893	1.21175	-0.207291	0	0	-0.141926	-0.0597103	-0.472167	0.53013	-0.137569	0	0	-0.566949	0.131283	0.547182	-0.529069	-0.415905	-0.706664	1.97484	0.484433	0	0	0.764642	-0.183918	0.806635	0.909547	0.618319	0	0
0.73	3.00137	1.33526	-1.46989	0.675352	-5.74601e-05	1.02592	0.235319	-0.00141092	-0.0614822	1.1895	-0.207209	0	0	-0.155107	-0.0578377	-0.471082	0.515949	-0.1374	0	0	-0.561526	0.134967	0.538805	-0.523821	-0.416238	-0.701391	1.97225	0.485589	0	0	0.763394	-0.18887	0.806738	0.912396	0.616755	0	0
0.74	3.01239	1.33476	-1.47297	0.674276	0.0107443	1.02636	0.255189	-0.0340416	-0.124792	1.17429	-0.210412	0	0	-0.173669	-0.0526913	-0.468533	0.500165	-0.137503	0	0	-0.563044	0.136614	0.535475	-0.531312	-0.410855	-0.709869	1.97825	0.488113	0	0	0.766367	-0.187947	0.811178	0.916971	0.6141	0	0
0.75	3.00569	1.33744	-1.4621	0.673918	0.0209518	1.02679	0.270572	-0.0384446	-0.143462	1.1418	-0.206883	0	0	-0.187015	-0.0523871	-0.466915	0.487856	-0.137245	0	0	-0.560435	0.14049	0.531092	-0.529684	-0.409285	-0.709988	1.97845	0.492437	0	0	0.766534	-0.189399	0.810529	0.919594	0.613043	0	0
0.76	2.99817	1.34206	-1.45065	0.673552	0.0311301	1.02677	0.287075	-0.0398077	-0.155625	1.10717	-0.200661	0	0	-0.197973	-0.0516829	-0.464704	0.475271	-0.136082	0	0	-0.55424	0.144898	0.523699	-0.524722	-0.410815	-0.705416	1.97627	0.484409	0	0	0.765002	-0.192813	0.80873	0.921736	0.611423	0	0
0.77	2.99266	1.34579	-1.44246	0.67345	0.0412811	1.02671	0.3013	-0.0398931	-0.163992	1.06972	-0.196897	0	0	-0.209967	-0.0504445	-0.463031	0.462571	-0.135773	0	0	-0.553338	0.14668	0.527083	-0.531009	-0.406024	-0.714529	1.98123	0.485502	0	0	0.768383	-0.189058	0.811071	0.923243	0.611556	0	0
0.78	2.98757	1.35032	-1.43534	0.673452	0.0515277	1.02642	0.31536	-0.0394765	-0.170373	1.03046	-0.193438	0	0	-0.220994	-0.0491163	-0.462529	0.450702	-0.135362	0	0	-0.548437	0.148951	0.523659	-0.528081	-0.405425	-0.71324	1.98008	0.486936	0	0	0.768101	-0.190114	0.809437	0.924142	0.612527	0	0
0.79	2.98148	1.35519	-1.42783	0.673541	0.0618224	1.02591	0.328893	-0.0387948	-0.176965	0.98943	-0.191944	0	0	-0.231005	-0.0485805	-0.464688	0.441823	-0.134487	0	0	-0.542121	0.151486	0.519184	-0.523116	-0.406253	-0.709427	1.97723	0.484519	0	0	0.767493	-0.192102	0.808443	0.923963	0.611693	0	0
0.8	2.97556	1.35975	-1.42048	0.673638	0.0721387	1.02521	0.340974	-0.0378061	-0.183544	0.946827	-0.188916	0	0	-0.241259	-0.0475931	-0.465193	0.432525	-0.132651	0	0	-0.540187	0.152834	0.523857	-0.529565	-0.402488	-0.718269	1.98171	0.484772	0	0	0.770259	-0.187557	0.80978	0.924777	0.613528	0	0
0.81	2.96877	1.36493	-1.41279	0.673819	0.0825543	1.02426	0.352814	-0.036004	-0.189027	0.903159	-0.186123	0	0	-0.250209	-0.0469201	-0.46611	0.42483	-0.130131	0	0	-0.535101	0.154866	0.524406	-0.530091	-0.401253	-0.720661	1.98204	0.486129	0	0	0.771284	-0.185878	0.810155	0.923682	0.615902	0	0
0.82	2.96292	1.37037	-1.40647	0.674066	0.0930552	1.02313	0.364056	-0.0342278	-0.194043	0.858747	-0.182997	0	0	-0.258435	-0.0460401	-0.466573	0.418382	-0.127327	0	0	-0.527578	0.157187	0.520057	-0.52431	-0.4035	-0.715603	1.97806	0.488233	0	0	0.769318	-0.187436	0.807305	0.922582	0.61675	0	0
0.83	2.95818	1.375	-1.40168	0.674364	0.103606	1.02187	0.373713	-0.0325279	-0.199563	0.814304	-0.178697	0	0	-0.267371	-0.0451322	-0.466638	0.413144	-0.124433	0	0	-0.525415	0.157876	0.526303	-0.531371	-0.400537	-0.72461	1.98218	0.490123	0	0	0.771521	-0.181769	0.808031	0.922426	0.617425	0	0
0.84	2.95423	1.37978	-1.39816	0.67479	0.114285	1.02045	0.382595	-0.0305949	-0.205268	0.76976	-0.172643	0	0	-0.276161	-0.044026	-0.466081	0.408288	-0.120602	0	0	-0.521599	0.158513	0.530941	-0.534504	-0.396439	-0.731208	1.98361	0.505302	0	0	0.773182	-0.176859	0.808739	0.920087	0.618483	0	0
0.85	2.95274	1.38528	-1.39721	0.675323	0.125094	1.0188	0.391592	-0.0291132	-0.21173	0.726479	-0.167388	0	0	-0.283669	-0.0428149	-0.466088	0.405354	-0.117316	0	0	-0.513551	0.159655	0.526299	-0.528013	-0.399735	-0.724464	1.97859	0.502268	0	0	0.770373	-0.179381	0.80541	0.919334	0.619973	0	0
0.86	2.95538	1.38989	-1.4003	0.675878	0.135982	1.017	0.398911	-0.0285571	-0.220001	0.685211	-0.162205	0	0	-0.291904	-0.0413731	-0.466886	0.403687	-0.113626	0	0	-0.51139	0.158564	0.533497	-0.536356	-0.395919	-0.73447	1.98283	0.501305	0	0	0.773038	-0.173846	0.807451	0.919222	0.623961	0	0
0.87	2.8525	1.38066	-1.30055	0.677374	0.145326	1.01834	0.275229	0.0485888	-0.0404686	0.347101	-0.192432	0	0	-0.308538	-0.0648236	-0.468304	0.403569	-0.112344	0	0	-0.521742	0.180234	0.539484	-0.52454	-0.405598	-0.72856	1.97608	0.503126	0	0	0.769282	-0.169113	0.792576	0.912201	0.632333	0	0
0.88	2.86756	1.3846	-1.31481	0.678025	0.15673	1.0162	0.278263	0.0445642	-0.0514969	0.30653	-0.198102	0	0	-0.318054	-0.0619764	-0.469645	0.403548	-0.109612	0	0	-0.519499	0.177426	0.544177	-0.53277	-0.400993	-0.737506	1.98029	0.503079	0	0	0.771113	-0.164527	0.794365	0.912635	0.635247	0	0
0.89	2.88597	1.38716	-1.33258	0.678996	0.168386	1.0142	0.278521	0.0410898	-0.0612276	0.270106	-0.201895	0	0	-0.328918	-0.0597947	-0.471202	0.404533	-0.106819	0	0	-0.515947	0.174843	0.54376	-0.533737	-0.398359	-0.738396	1.97945	0.504537	0	0	0.770959	-0.163716	0.794465	0.911907	0.637653	0	0
0.9	2.89884	1.39038	-1.34327	0.679892	0.180217	1.01198	0.279969	0.0385643	-0.0703209	0.242998	-0.204252	0	0	-0.337811	-0.059709	-0.471769	0.408012	-0.103283	0	0	-0.508488	0.175149	0.536545	-0.528164	-0.399254	-0.731114	1.97419	0.506958	0	0	0.767124	-0.166827	0.790971	0.911339	0.639477	0	0
0.91	2.91008	1.39185	-1.35132	0.680794	0.192172	1.00978	0.28143	0.0367301	-0.0780164	0.22923	-0.204097	0	0	-0.347556	-0.0614174	-0.472026	0.413599	-0.100386	0	0	-0.507904	0.175137	0.540949	-0.537734	-0.39361	-0.740335	1.97874	0.5089	0	0	0.767867	-0.161983	0.791484	0.912555	0.641258	0	0
0.92	2.91956	1.3917	-1.35681	0.681668	0.204319	1.00773	0.281791	0.0353213	-0.0822691	0.225215	-0.20257	0	0	-0.358058	-0.0647588	-0.47247	0.421255	-0.0977323	0	0	-0.506594	0.177313	0.541277	-0.542038	-0.389497	-0.744939	1.97998	0.510568	0	0	0.766558	-0.159136	0.790311	0.912402	0.642806	0	0
0.93	2.92643	1.39032	-1.35861	0.682466	0.216677	1.00581	0.282096	0.034292	-0.0859664	0.233599	-0.196894	0	0	-0.368405	-0.070142	-0.474171	0.432549	-0.0936069	0	0	-0.503045	0.182332	0.532412	-0.535813	-0.389944	-0.738198	1.97492	0.525767	0	0	0.758776	-0.161426	0.779388	0.913698	0.64928	0	0
0.94	2.93334	1.38677	-1.36005	0.683195	0.229108	1.00403	0.279981	0.0336609	-0.0878668	0.250632	-0.195101	0	0	-0.380367	-0.0759258	-0.474358	0.444649	-0.092146	0	0	-0.507924	0.186341	0.538	-0.54868	-0.384985	-0.750732	1.98134	0.521946	0	0	0.758554	-0.155608	0.779208	0.917346	0.649998	0	0
0.95	2.93877	1.38269	-1.35993	0.683914	0.241745	1.00224	0.277496	0.0333894	-0.0905671	0.277023	-0.193092	0	0	-0.391552	-0.0825918	-0.474713	0.459958	-0.0903521	0	0	-0.51071	0.191863	0.538504	-0.555728	-0.38316	-0.756201	1.98382	0.519286	0	0	0.755514	-0.153588	0.776891	0.921397	0.650782	0	0
